HIERARCHY
ROOT Hips
{
	OFFSET 0.000000 0.000000 0.000000
	CHANNELS 6 Xposition Yposition Zposition Xrotation Yrotation Zrotation
	JOINT LHipJoint
	{
		OFFSET 0.000000 0.000000 0.000000
		CHANNELS 6 Xposition Yposition Zposition Xrotation Yrotation Zrotation
		JOINT LeftUpLeg
		{
			OFFSET 1.076881 -0.406101 -1.171833
			CHANNELS 6 Xposition Yposition Zposition Xrotation Yrotation Zrotation
			JOINT LeftLeg
			{
				OFFSET 1.688180 -0.000000 -4.638244
				CHANNELS 6 Xposition Yposition Zposition Xrotation Yrotation Zrotation
				JOINT LeftFoot
				{
					OFFSET 1.620034 -0.000000 -4.451005
					CHANNELS 6 Xposition Yposition Zposition Xrotation Yrotation Zrotation
					JOINT LeftToeBase
					{
						OFFSET 0.128076 -1.394776 -0.351884
						CHANNELS 6 Xposition Yposition Zposition Xrotation Yrotation Zrotation
						End Site
						{
							OFFSET 0.000000 -0.723119 0.000000
						}
					}
				}
			}
		}
	}
	JOINT RHipJoint
	{
		OFFSET 0.000000 0.000000 0.000000
		CHANNELS 6 Xposition Yposition Zposition Xrotation Yrotation Zrotation
		JOINT RightUpLeg
		{
			OFFSET -1.046955 -0.406094 -1.171833
			CHANNELS 6 Xposition Yposition Zposition Xrotation Yrotation Zrotation
			JOINT RightLeg
			{
				OFFSET -1.686763 -0.000000 -4.634350
				CHANNELS 6 Xposition Yposition Zposition Xrotation Yrotation Zrotation
				JOINT RightFoot
				{
					OFFSET -1.604070 -0.000000 -4.407156
					CHANNELS 6 Xposition Yposition Zposition Xrotation Yrotation Zrotation
					JOINT RightToeBase
					{
						OFFSET -0.149656 -1.386892 -0.411177
						CHANNELS 6 Xposition Yposition Zposition Xrotation Yrotation Zrotation
						End Site
						{
							OFFSET 0.000000 -0.725199 0.000000
						}
					}
				}
			}
		}
	}
	JOINT LowerBack
	{
		OFFSET 0.000000 0.000000 0.000000
		CHANNELS 6 Xposition Yposition Zposition Xrotation Yrotation Zrotation
		JOINT Spine
		{
			OFFSET 0.012746 0.091728 1.335425
			CHANNELS 6 Xposition Yposition Zposition Xrotation Yrotation Zrotation
			JOINT Spine1
			{
				OFFSET 0.006637 0.038487 1.341834
				CHANNELS 6 Xposition Yposition Zposition Xrotation Yrotation Zrotation
				JOINT Neck
				{
					OFFSET 0.000000 0.000000 0.000000
					CHANNELS 6 Xposition Yposition Zposition Xrotation Yrotation Zrotation
					JOINT Neck1
					{
						OFFSET 0.004634 -0.097292 1.018621
						CHANNELS 6 Xposition Yposition Zposition Xrotation Yrotation Zrotation
						JOINT Head
						{
							OFFSET 0.022288 0.065039 1.014266
							CHANNELS 6 Xposition Yposition Zposition Xrotation Yrotation Zrotation
							End Site
							{
								OFFSET 0.008483 0.034223 1.056640
							}
						}
					}
				}
				JOINT LeftShoulder
				{
					OFFSET 0.000000 0.000000 0.000000
					CHANNELS 6 Xposition Yposition Zposition Xrotation Yrotation Zrotation
					JOINT LeftArm
					{
						OFFSET 2.302332 0.112866 0.587834
						CHANNELS 6 Xposition Yposition Zposition Xrotation Yrotation Zrotation
						JOINT LeftForeArm
						{
							OFFSET 3.162334 0.000000 0.000000
							CHANNELS 6 Xposition Yposition Zposition Xrotation Yrotation Zrotation
							JOINT LeftHand
							{
								OFFSET 2.181101 0.000000 0.000000
								CHANNELS 6 Xposition Yposition Zposition Xrotation Yrotation Zrotation
								JOINT LeftFingerBase
								{
									OFFSET 0.000000 0.000000 0.000000
									CHANNELS 6 Xposition Yposition Zposition Xrotation Yrotation Zrotation
									JOINT LeftHandIndex1
									{
										OFFSET 0.429761 0.000000 0.000000
										CHANNELS 6 Xposition Yposition Zposition Xrotation Yrotation Zrotation
										End Site
										{
											OFFSET 0.346489 0.000000 0.000000
										}
									}
								}
								JOINT LThumb
								{
									OFFSET 0.000000 0.000000 0.000000
									CHANNELS 6 Xposition Yposition Zposition Xrotation Yrotation Zrotation
									End Site
									{
										OFFSET 0.351780 -0.351780 0.000000
									}
								}
							}
						}
					}
				}
				JOINT RightShoulder
				{
					OFFSET 0.000000 0.000000 0.000000
					CHANNELS 6 Xposition Yposition Zposition Xrotation Yrotation Zrotation
					JOINT RightArm
					{
						OFFSET -2.273713 0.212004 0.493961
						CHANNELS 6 Xposition Yposition Zposition Xrotation Yrotation Zrotation
						JOINT RightForeArm
						{
							OFFSET -3.267218 0.000000 0.000000
							CHANNELS 6 Xposition Yposition Zposition Xrotation Yrotation Zrotation
							JOINT RightHand
							{
								OFFSET -2.186801 0.000000 0.000000
								CHANNELS 6 Xposition Yposition Zposition Xrotation Yrotation Zrotation
								JOINT RightFingerBase
								{
									OFFSET 0.000000 0.000000 0.000000
									CHANNELS 6 Xposition Yposition Zposition Xrotation Yrotation Zrotation
									JOINT RightHandIndex1
									{
										OFFSET -0.474766 0.000000 0.000000
										CHANNELS 6 Xposition Yposition Zposition Xrotation Yrotation Zrotation
										End Site
										{
											OFFSET -0.382766 0.000000 0.000000
										}
									}
								}
								JOINT RThumb
								{
									OFFSET 0.000000 0.000000 0.000000
									CHANNELS 6 Xposition Yposition Zposition Xrotation Yrotation Zrotation
									End Site
									{
										OFFSET -0.388609 -0.388609 0.000000
									}
								}
							}
						}
					}
				}
			}
		}
	}
}
MOTION
Frames: 5
Frame Time: 0.040000
6.459229 13.694283 11.036760 -3.147470 -2.808788 0.992282 0.000001 -0.000001 0.000000 0.000001 0.000004 0.000004 1.076881 -0.406100 -1.171832 5.393298 31.164770 -5.928662 1.688180 0.000001 -4.638245 20.984966 1.389029 7.489591 1.620034 0.000000 -4.451006 -19.838392 -1.224478 0.151147 0.128077 -1.394777 -0.351884 -0.350201 0.000381 -0.127431 0.000001 -0.000001 0.000000 0.000006 0.000001 -0.000003 -1.046953 -0.406093 -1.171833 -22.677475 -20.640154 13.438712 -1.686763 0.000001 -4.634353 40.075264 -4.962529 -13.551604 -1.604069 0.000000 -4.407156 -16.240846 2.756824 -8.550657 -0.149656 -1.386894 -0.411178 -16.789667 -0.891428 6.035026 0.000001 -0.000001 0.000000 5.521540 2.882640 -1.674085 0.012747 0.091728 1.335424 3.331761 -1.010653 -1.930002 0.006636 0.038486 1.341834 0.475901 -2.678273 -1.023146 -0.000000 -0.000000 0.000001 -12.372941 0.221996 3.591723 0.004636 -0.097291 1.018621 -2.993969 1.791168 4.783906 0.022289 0.065040 1.014265 0.000001 -0.000000 -0.000000 0.000000 -0.000000 0.000000 0.000001 -0.000001 -0.000000 2.302333 0.112864 0.587835 82.006297 55.009924 -87.520241 3.162332 -0.000002 0.000000 -9.772696 -22.639506 -46.251794 2.181100 0.000001 -0.000001 -27.583809 -0.000009 0.000000 0.000000 0.000000 -0.000000 -0.000001 0.000000 0.000001 0.429761 -0.000002 0.000001 -0.000001 -0.000000 0.000003 0.000000 0.000001 -0.000001 -0.000001 0.000001 0.000003 -0.000000 -0.000000 0.000001 0.000002 0.000001 -0.000000 -2.273713 0.212006 0.493962 93.583243 -66.641780 84.078433 -3.267219 -0.000000 0.000001 -1.820186 10.741303 19.181813 -2.186801 -0.000000 0.000000 -8.679112 0.000004 0.000002 -0.000000 -0.000000 -0.000001 -0.000001 -0.000000 0.000001 -0.474766 -0.000000 -0.000000 -0.000001 -0.000000 -0.000001 -0.000000 -0.000001 -0.000000 -0.000001 -0.000000 -0.000003 
6.459229 13.694283 11.036760 -3.147470 -2.808788 0.992282 0.000001 -0.000001 0.000000 0.000001 0.000004 0.000004 1.076881 -0.406100 -1.171832 5.393298 31.164770 -5.928662 1.688180 0.000001 -4.638245 20.984966 1.389029 7.489591 1.620034 0.000000 -4.451006 -19.838392 -1.224478 0.151147 0.128077 -1.394777 -0.351884 -0.350201 0.000381 -0.127431 0.000001 -0.000001 0.000000 0.000006 0.000001 -0.000003 -1.046953 -0.406093 -1.171833 -22.677475 -20.640154 13.438712 -1.686763 0.000001 -4.634353 40.075264 -4.962529 -13.551604 -1.604069 0.000000 -4.407156 -16.240846 2.756824 -8.550657 -0.149656 -1.386894 -0.411178 -16.789667 -0.891428 6.035026 0.000001 -0.000001 0.000000 5.521540 2.882640 -1.674085 0.012747 0.091728 1.335424 3.331761 -1.010653 -1.930002 0.006636 0.038486 1.341834 0.475901 -2.678273 -1.023146 -0.000000 -0.000000 0.000001 -12.372941 0.221996 3.591723 0.004636 -0.097291 1.018621 -2.993969 1.791168 4.783906 0.022289 0.065040 1.014265 0.000001 -0.000000 -0.000000 0.000000 -0.000000 0.000000 0.000001 -0.000001 -0.000000 2.302333 0.112864 0.587835 82.006297 55.009924 -87.520241 3.162332 -0.000002 0.000000 -9.772696 -22.639506 -46.251794 2.181100 0.000001 -0.000001 -27.583809 -0.000009 0.000000 0.000000 0.000000 -0.000000 -0.000001 0.000000 0.000001 0.429761 -0.000002 0.000001 -0.000001 -0.000000 0.000003 0.000000 0.000001 -0.000001 -0.000001 0.000001 0.000003 -0.000000 -0.000000 0.000001 0.000002 0.000001 -0.000000 -2.273713 0.212006 0.493962 93.583243 -66.641780 84.078433 -3.267219 -0.000000 0.000001 -1.820186 10.741303 19.181813 -2.186801 -0.000000 0.000000 -8.679112 0.000004 0.000002 -0.000000 -0.000000 -0.000001 -0.000001 -0.000000 0.000001 -0.474766 -0.000000 -0.000000 -0.000001 -0.000000 -0.000001 -0.000000 -0.000001 -0.000000 -0.000001 -0.000000 -0.000003 
6.438722 13.161020 11.040392 -2.846549 -2.771040 2.449670 -0.000000 -0.000000 -0.000000 0.000002 0.000001 0.000005 1.076884 -0.406099 -1.171832 10.884277 30.236872 -6.850345 1.688180 -0.000001 -4.638243 16.733622 0.885472 6.015378 1.620034 -0.000002 -4.451005 -18.298541 -0.758414 -0.739911 0.128076 -1.394777 -0.351882 -2.686511 0.022909 -0.977498 -0.000000 -0.000000 -0.000000 0.000003 0.000000 -0.000001 -1.046955 -0.406093 -1.171832 -23.121794 -20.118570 13.679167 -1.686764 -0.000000 -4.634350 29.877034 -2.794122 -10.445960 -1.604070 -0.000002 -4.407158 -16.345973 2.622747 -7.809439 -0.149655 -1.386892 -0.411177 -14.854458 -0.698452 5.353995 -0.000000 -0.000000 -0.000000 5.624496 2.782101 -2.067447 0.012747 0.091729 1.335427 3.104500 -1.110561 -2.521119 0.006636 0.038486 1.341834 0.229161 -2.826190 -1.278508 -0.000000 0.000001 0.000000 -12.494398 0.721972 3.565087 0.004635 -0.097292 1.018620 -3.008801 1.510580 4.675765 0.022289 0.065040 1.014266 -0.000000 0.000000 0.000000 -0.000000 0.000001 -0.000000 0.000000 0.000002 0.000000 2.302333 0.112867 0.587832 81.027511 52.925258 -86.475782 3.162334 -0.000000 0.000000 -11.195492 -23.814583 -49.858305 2.181100 0.000001 0.000000 -28.319119 -0.000011 -0.000002 -0.000001 0.000001 -0.000000 -0.000000 -0.000001 -0.000002 0.429762 -0.000001 0.000001 0.000001 0.000000 0.000003 -0.000001 0.000001 -0.000000 -0.000000 -0.000001 -0.000000 -0.000000 0.000001 0.000000 0.000002 -0.000000 0.000001 -2.273713 0.212004 0.493962 97.817045 -70.127506 85.576451 -3.267219 0.000001 0.000001 -1.570632 10.007183 17.796097 -2.186803 -0.000000 0.000000 -6.198762 0.000003 0.000002 -0.000000 0.000001 -0.000000 0.000000 -0.000000 0.000001 -0.474766 0.000000 0.000000 0.000000 0.000000 0.000000 -0.000001 0.000001 0.000000 -0.000001 -0.000000 0.000000 
6.418154 12.601241 11.031257 -2.773740 -2.931725 3.861144 -0.000001 0.000003 0.000003 -0.000000 0.000003 0.000002 1.076880 -0.406103 -1.171833 17.476284 29.401055 -7.589810 1.688180 -0.000000 -4.638244 10.759024 0.366976 3.895998 1.620034 0.000001 -4.451005 -15.647615 -0.652432 -0.221215 0.128075 -1.394776 -0.351883 -9.557571 0.289717 -3.464647 -0.000001 0.000003 0.000003 0.000002 0.000001 -0.000003 -1.046955 -0.406093 -1.171834 -25.916651 -19.240528 7.846812 -1.686763 0.000001 -4.634353 23.280307 -1.706572 -8.270793 -1.604071 -0.000001 -4.407155 -15.726925 1.367521 -2.727513 -0.149656 -1.386891 -0.411177 -15.096239 -0.721305 5.439439 -0.000001 0.000003 0.000003 5.253927 2.696231 -2.445900 0.012747 0.091728 1.335424 3.257587 -1.212320 -2.970999 0.006636 0.038487 1.341834 0.624721 -2.852945 -1.542612 0.000000 0.000002 0.000001 -12.965101 0.857652 3.469028 0.004635 -0.097293 1.018622 -3.030368 1.560551 4.555060 0.022289 0.065039 1.014263 0.000002 0.000000 0.000000 0.000000 0.000002 0.000001 -0.000001 0.000001 -0.000000 2.302333 0.112865 0.587832 80.353515 51.944685 -86.037106 3.162333 0.000001 0.000000 -11.920518 -24.355492 -51.634727 2.181100 -0.000000 -0.000001 -27.196517 -0.000007 -0.000002 -0.000001 0.000000 -0.000000 -0.000000 -0.000001 -0.000003 0.429763 0.000000 -0.000000 0.000001 -0.000000 0.000004 -0.000001 0.000001 -0.000000 0.000000 -0.000001 0.000003 0.000000 0.000002 0.000001 0.000001 0.000001 0.000001 -2.273713 0.212005 0.493962 101.226026 -74.497276 87.720673 -3.267218 0.000001 0.000001 -1.255504 8.980367 15.885772 -2.186803 -0.000000 0.000001 -3.716928 0.000002 0.000000 -0.000000 0.000001 -0.000000 0.000000 0.000000 0.000003 -0.474765 -0.000002 -0.000001 -0.000001 0.000000 0.000000 -0.000001 0.000001 0.000000 0.000000 -0.000000 0.000000 
6.367403 12.017932 10.985546 -2.319299 -2.946147 4.529747 0.000000 -0.000001 0.000001 -0.000001 0.000001 0.000003 1.076881 -0.406101 -1.171834 20.867536 28.652715 -8.187066 1.688180 -0.000002 -4.638245 9.785287 0.303678 3.546530 1.620033 0.000001 -4.451004 -14.146154 -0.641133 0.305067 0.128077 -1.394778 -0.351883 -10.607063 0.351042 -3.780356 0.000000 -0.000001 0.000001 0.000005 -0.000004 -0.000001 -1.046956 -0.406096 -1.171832 -27.416818 -19.604337 5.539225 -1.686764 -0.000000 -4.634351 22.178162 -1.550154 -7.897084 -1.604071 -0.000001 -4.407155 -16.467081 1.465643 -2.703310 -0.149655 -1.386891 -0.411176 -12.407250 -0.487797 4.485259 0.000000 -0.000001 0.000001 4.893080 3.040451 -2.575853 0.012747 0.091728 1.335425 3.036457 -1.531145 -3.121560 0.006636 0.038488 1.341833 0.669551 -3.403408 -1.646720 -0.000001 -0.000000 0.000000 -13.573227 1.318895 3.446815 0.004635 -0.097291 1.018620 -2.698338 1.752012 4.461883 0.022289 0.065040 1.014266 -0.000001 -0.000000 0.000000 -0.000001 -0.000000 0.000000 0.000001 -0.000000 0.000000 2.302331 0.112864 0.587832 82.058746 51.634806 -87.133024 3.162336 0.000000 -0.000000 -12.091588 -24.477858 -52.048630 2.181100 -0.000000 0.000000 -26.073916 -0.000009 0.000002 -0.000002 -0.000001 0.000001 -0.000000 -0.000000 -0.000003 0.429762 -0.000001 0.000001 -0.000001 0.000000 0.000003 -0.000002 -0.000000 0.000001 -0.000001 -0.000000 -0.000000 -0.000001 -0.000000 0.000000 0.000002 0.000001 0.000001 -2.273713 0.212004 0.493959 103.069283 -80.625978 88.841746 -3.267218 -0.000002 0.000000 -0.974374 7.937507 13.974854 -2.186803 0.000001 0.000001 0.567461 0.000000 0.000002 -0.000001 0.000001 -0.000001 0.000001 0.000000 0.000004 -0.474767 -0.000000 -0.000001 -0.000000 0.000000 0.000000 -0.000002 0.000001 -0.000000 0.000001 0.000000 0.000000 
